<svg width="96" height="96" viewBox="0 0 96 96" fill="none" xmlns="http://www.w3.org/2000/svg">
  <defs>
    <radialGradient id="appleShade" cx="0" cy="0" r="1" gradientUnits="userSpaceOnUse" gradientTransform="translate(36 30) rotate(50) scale(56)">
      <stop stop-color="#FCA5A5"/>
      <stop offset="1" stop-color="#DC2626"/>
    </radialGradient>
  </defs>
  <path d="M52 20C52 12 56 7 63 4" stroke="#78350F" stroke-width="5" stroke-linecap="round"/>
  <path d="M53 10C60 6 68 8 73 14C65 18 57 19 50 14C50 14 51 11 53 10Z" fill="#22C55E"/>
  <path d="M48 24C62 24 74 34 74 52C74 71 62 86 48 86C34 86 22 71 22 52C22 34 34 24 48 24Z" fill="url(#appleShade)"/>
  <ellipse cx="38" cy="43" rx="8" ry="6" fill="#FEE2E2" fill-opacity="0.7"/>
</svg>
